<svg xmlns="http://www.w3.org/2000/svg" viewBox="0 0 32 32">
  <defs>
    <style>
      .a {
        fill: #fff;
      }
    </style>
  </defs>
  <g>
    <path class="a" d="M25,8H7a3,3,0,0,0-3,3V21a3,3,0,0,0,3,3H25a3,3,0,0,0,3-3V11A3,3,0,0,0,25,8ZM5,11A2,2,0,0,1,7,9H25a1.91,1.91,0,0,1,.8.17l-20.42,13A2,2,0,0,1,5,21ZM27,21a2,2,0,0,1-2,2H7a1.91,1.91,0,0,1-.8-.17l20.42-13A2,2,0,0,1,27,11Z"/>
    <g>
      <g>
        <path class="a" d="M20.19,11.85a3.5,3.5,0,0,0-3.25,2.07Z"/>
        <path class="a" d="M20.31,18.42c-1.15,0-1.94-.89-2-2.42l-1.69,1.08A3.46,3.46,0,0,0,20.13,20a3.21,3.21,0,0,0,2.56-1.15l-1-1.07A1.89,1.89,0,0,1,20.31,18.42Z"/>
      </g>
      <g>
        <path class="a" d="M12.22,19.89a4.17,4.17,0,0,0,.71.06,3.21,3.21,0,0,0,2.56-1.15l-.57-.63Z"/>
        <path class="a" d="M11.45,17.41a3.27,3.27,0,0,1-.33-1.53c0-1.56.81-2.5,1.92-2.5a1.88,1.88,0,0,1,1.36.56l1-1.1a3.36,3.36,0,0,0-2.33-1c-2.09,0-3.73,1.5-3.73,4.09a4.44,4.44,0,0,0,.63,2.43Z"/>
      </g>
    </g>
  </g>
</svg>
