<svg xmlns="http://www.w3.org/2000/svg" viewBox="0 0 32 32">
  <defs>
    <style>
      .a {
        fill: #fff;
      }
    </style>
  </defs>
  <g>
    <g>
      <path class="a" d="M9.31,15.94c0-2.59,1.64-4.09,3.73-4.09a3.36,3.36,0,0,1,2.33,1l-1,1.1A1.88,1.88,0,0,0,13,13.38c-1.11,0-1.92.94-1.92,2.5s.81,2.54,2,2.54a1.89,1.89,0,0,0,1.41-.69l1,1.07A3.21,3.21,0,0,1,12.93,20C11,20,9.31,18.58,9.31,15.94Z"/>
      <path class="a" d="M16.51,15.94c0-2.59,1.64-4.09,3.73-4.09a3.36,3.36,0,0,1,2.33,1l-1,1.1a1.88,1.88,0,0,0-1.36-.56c-1.11,0-1.92.94-1.92,2.5s.81,2.54,2,2.54a1.89,1.89,0,0,0,1.41-.69l1,1.07A3.21,3.21,0,0,1,20.13,20C18.19,20,16.51,18.58,16.51,15.94Z"/>
    </g>
    <path class="a" d="M25,9a2,2,0,0,1,2,2V21a2,2,0,0,1-2,2H7a2,2,0,0,1-2-2V11A2,2,0,0,1,7,9H25m0-1H7a3,3,0,0,0-3,3V21a3,3,0,0,0,3,3H25a3,3,0,0,0,3-3V11a3,3,0,0,0-3-3Z"/>
  </g>
</svg>
