<svg xmlns="http://www.w3.org/2000/svg" viewBox="0 0 128 128"><defs><style>.a,.b,.c,.d,.e,.f{fill:none;stroke:#282784;stroke-miterlimit:10;stroke-width:6.29px;}.a{opacity:0.3;}.b{opacity:0.45;}.c{opacity:0.55;}.d{opacity:0.7;}.e{opacity:0.85;}</style></defs><path class="a" d="M4,0A124,124,0,0,0,40.32,87.68,124,124,0,0,0,128,124"/><path class="b" d="M19.53,0A109.3,109.3,0,0,0,51.3,77.06,108.26,108.26,0,0,0,128,109"/><path class="c" d="M35.07,0A94.54,94.54,0,0,0,62.29,66.44,92.46,92.46,0,0,0,128,94"/><path class="d" d="M50.6,0A79.73,79.73,0,0,0,73.27,55.81,76.66,76.66,0,0,0,128,78.93"/><path class="e" d="M66.14,0A65,65,0,0,0,84.26,45.19,60.88,60.88,0,0,0,128,63.91"/><path class="f" d="M81.67,0A50.3,50.3,0,0,0,95.24,34.57,45.18,45.18,0,0,0,128,48.89"/></svg>