<svg xmlns="http://www.w3.org/2000/svg" viewBox="0 0 128 128"><defs><style>.a{fill:#fff;}.b,.c,.d,.e,.f,.g{fill:none;stroke:#fff;stroke-miterlimit:10;stroke-width:4.39px;}.b{opacity:0.3;}.c{opacity:0.45;}.d{opacity:0.55;}.e{opacity:0.7;}.f{opacity:0.85;}</style></defs><path class="a" d="M77.37,5H99.65c11.78,0,18.14,5.14,18.14,13.35,0,7.64-3.79,12.14-8.43,14.43l11.07,21.42-16.14,1.64L96.36,36.09H92.44V55H77.37ZM92.44,26.67h4.28a6,6,0,0,0,6-6.15c0-4.92-3.07-6.14-6.28-6.14h-4Z"/><path class="b" d="M8,37.61a88.39,88.39,0,0,0,25,61.79A84.58,84.58,0,0,0,93.51,125"/><path class="c" d="M18.71,37.61A77.91,77.91,0,0,0,40.62,91.92a73.83,73.83,0,0,0,52.89,22.49"/><path class="d" d="M29.43,37.61A67.34,67.34,0,0,0,48.2,84.43a63.08,63.08,0,0,0,45.31,19.4"/><path class="e" d="M40.14,37.61A56.81,56.81,0,0,0,55.77,76.94a52.32,52.32,0,0,0,37.74,16.3"/><path class="f" d="M50.85,37.61a46.37,46.37,0,0,0,12.5,31.85A41.55,41.55,0,0,0,93.51,82.65"/><path class="g" d="M61.56,37.61A35.89,35.89,0,0,0,70.92,62,30.82,30.82,0,0,0,93.51,72.06"/></svg>