<svg xmlns="http://www.w3.org/2000/svg" viewBox="0 0 20 20"><defs><style>.a,.b{fill:#c6c7cd;}.b{fill-rule:evenodd;}</style></defs><path class="a" d="M10,4.17,0,0V15.83L10,20l10-4.17V0ZM1,1.5,9.5,5V18.71L1,15.17ZM19,15.17l-8.5,3.54V5L19,1.5Z"/><polygon class="b" points="12.25 12.75 17.25 10.67 17.25 10.13 12.25 12.21 12.25 12.75"/><polygon class="a" points="12.25 15.08 17.25 13 17.25 12.46 12.25 14.54 12.25 15.08"/><polygon class="b" points="12.25 8.08 17.25 6 17.25 5.46 12.25 7.54 12.25 8.08"/><polygon class="b" points="12.25 10.42 17.25 8.33 17.25 7.79 12.25 9.88 12.25 10.42"/><polygon class="b" points="7.75 12.75 2.75 10.67 2.75 10.13 7.75 12.21 7.75 12.75"/><polygon class="a" points="7.75 15.08 2.75 13 2.75 12.46 7.75 14.54 7.75 15.08"/><polygon class="b" points="7.75 8.08 2.75 6 2.75 5.46 7.75 7.54 7.75 8.08"/><polygon class="b" points="7.75 10.42 2.75 8.33 2.75 7.79 7.75 9.88 7.75 10.42"/></svg>