<svg xmlns="http://www.w3.org/2000/svg" viewBox="0 0 20 20"><defs><style>.a{fill:#c6c7cd;}.b{fill:#565963;}</style></defs><path class="a" d="M10,4.17,0,0V15.83L10,20l10-4.17V0Z"/><path class="b" d="M10.5,5V18.71L19,15.17V1.5Zm6.75,8-5,2.08v-.54l5-2.08Zm0-2.33-5,2.08v-.54l5-2.09Zm0-2.34-5,2.09V9.88l5-2.09Zm0-2.33-5,2.08V7.54l5-2.08Z"/><path class="b" d="M1,1.5V15.17l8.5,3.54V5ZM7.75,15.08,2.75,13v-.54l5,2.08Zm0-2.33-5-2.08v-.55l5,2.09Zm0-2.33-5-2.09V7.79l5,2.09Zm0-2.34L2.75,6V5.46l5,2.08Z"/></svg>